<?xml version="1.0" encoding="UTF-8" standalone="no"?>
<!DOCTYPE svg PUBLIC "-//W3C//DTD SVG 1.1//EN"
 "http://www.w3.org/Graphics/SVG/1.1/DTD/svg11.dtd">
<!-- Generated by graphviz version 16.0.0 (20260814.1018)
 -->
<!-- Pages: 1 -->
<svg width="1349pt" height="527pt"
 viewBox="0.00 0.00 1349.00 527.00" xmlns="http://www.w3.org/2000/svg" xmlns:xlink="http://www.w3.org/1999/xlink">
<g id="graph0" class="graph" transform="scale(1 1) rotate(0) translate(4 522.5)">
<polygon fill="white" stroke="none" points="-4,4 -4,-522.5 1345.25,-522.5 1345.25,4 -4,4"/>
<text xml:space="preserve" text-anchor="middle" x="670.62" y="-495.5" font-family="Helvetica,sans-Serif" font-size="20.00">dendro: the read path</text>
<g id="clust1" class="cluster">
<title>cluster_yours</title>
<polygon fill="white" stroke="#9e9e9e" stroke-dasharray="5,2" points="580.75,-11.5 580.75,-88.5 737.25,-88.5 737.25,-11.5 580.75,-11.5"/>
<text xml:space="preserve" text-anchor="middle" x="605.25" y="-71.2" font-family="Helvetica,sans-Serif" font-size="14.00">yours</text>
</g>
<g id="clust2" class="cluster">
<title>cluster_key</title>
<polygon fill="#f2f2f2" stroke="#9e9e9e" points="8,-167.5 8,-481.5 152.5,-481.5 152.5,-167.5 8,-167.5"/>
<text xml:space="preserve" text-anchor="middle" x="26.5" y="-465.15" font-family="Helvetica,sans-Serif" font-size="13.00">key</text>
</g>
<!-- sealed -->
<g id="node1" class="node">
<title>sealed</title>
<polygon fill="#fbe3cb" stroke="#4d4d4d" stroke-width="1.4" points="53.25,-77 53.25,-146 107.25,-146 107.25,-77 53.25,-77"/>
<text xml:space="preserve" text-anchor="middle" x="80.25" y="-128.7" font-family="Helvetica,sans-Serif" font-size="14.00">seq 0</text>
<polyline fill="none" stroke="#4d4d4d" stroke-width="1.4" points="53.25,-123 107.25,-123"/>
<text xml:space="preserve" text-anchor="middle" x="80.25" y="-105.7" font-family="Helvetica,sans-Serif" font-size="14.00">seq 1</text>
<polyline fill="none" stroke="#4d4d4d" stroke-width="1.4" points="53.25,-100 107.25,-100"/>
<text xml:space="preserve" text-anchor="middle" x="80.25" y="-82.7" font-family="Helvetica,sans-Serif" font-size="14.00">seq 2</text>
</g>
<!-- watermark -->
<g id="node3" class="node">
<title>watermark</title>
<path fill="#ffff99" stroke="#4d4d4d" stroke-width="1.4" d="M438,-65C438,-65 287,-65 287,-65 281,-65 275,-59 275,-53 275,-53 275,-24 275,-24 275,-18 281,-12 287,-12 287,-12 438,-12 438,-12 444,-12 450,-18 450,-24 450,-24 450,-53 450,-53 450,-59 444,-65 438,-65"/>
<text xml:space="preserve" text-anchor="middle" x="362.5" y="-47.7" font-family="Helvetica,sans-Serif" font-size="14.00">1. select live rows</text>
<text xml:space="preserve" text-anchor="middle" x="362.5" y="-32.7" font-family="Helvetica,sans-Serif" font-size="14.00">`ts &gt; MAX(last_ts)`</text>
<text xml:space="preserve" text-anchor="middle" x="362.5" y="-17.7" font-family="Helvetica,sans-Serif" font-size="14.00">for this stream, this source</text>
</g>
<!-- sealed&#45;&gt;watermark -->
<g id="edge2" class="edge">
<title>sealed&#45;&gt;watermark</title>
<path fill="none" stroke="#4d4d4d" stroke-width="1.4" stroke-dasharray="1,5" d="M107.66,-99.65C125.43,-92.05 149.52,-82.43 171.5,-76 200.84,-67.41 233.31,-60.19 262.98,-54.45"/>
<polygon fill="#4d4d4d" stroke="#4d4d4d" stroke-width="1.4" points="263.38,-57.94 272.55,-52.64 262.08,-51.06 263.38,-57.94"/>
<text xml:space="preserve" text-anchor="middle" x="209.75" y="-77.15" font-family="Helvetica,sans-Serif" font-size="13.00">MAX(last_ts)</text>
</g>
<!-- splice -->
<g id="node6" class="node">
<title>splice</title>
<path fill="#7fc97f" stroke="#4d4d4d" stroke-width="1.4" d="M1132.25,-94.5C1132.25,-94.5 1029.25,-94.5 1029.25,-94.5 1023.25,-94.5 1017.25,-88.5 1017.25,-82.5 1017.25,-82.5 1017.25,-68.5 1017.25,-68.5 1017.25,-62.5 1023.25,-56.5 1029.25,-56.5 1029.25,-56.5 1132.25,-56.5 1132.25,-56.5 1138.25,-56.5 1144.25,-62.5 1144.25,-68.5 1144.25,-68.5 1144.25,-82.5 1144.25,-82.5 1144.25,-88.5 1138.25,-94.5 1132.25,-94.5"/>
<text xml:space="preserve" text-anchor="middle" x="1080.75" y="-77.2" font-family="Helvetica,sans-Serif" font-size="14.00">3. splice</text>
<text xml:space="preserve" text-anchor="middle" x="1080.75" y="-62.2" font-family="Helvetica,sans-Serif" font-size="14.00">oldest first, tail last</text>
</g>
<!-- sealed&#45;&gt;splice -->
<g id="edge5" class="edge">
<title>sealed&#45;&gt;splice</title>
<path fill="none" stroke="#d55e00" stroke-width="2" d="M107.91,-111.5C157.73,-111.5 268.33,-111.5 361.5,-111.5 361.5,-111.5 361.5,-111.5 874.25,-111.5 917.79,-111.5 965.75,-103.56 1004.38,-95.14"/>
<polygon fill="#d55e00" stroke="#d55e00" stroke-width="2" points="1004.89,-98.61 1013.88,-93 1003.36,-91.78 1004.89,-98.61"/>
</g>
<!-- live -->
<g id="node2" class="node">
<title>live</title>
<polygon fill="#ededed" stroke="#4d4d4d" stroke-width="1.4" points="53.25,-0.5 53.25,-46.5 107.25,-46.5 107.25,-0.5 53.25,-0.5"/>
<text xml:space="preserve" text-anchor="middle" x="80.25" y="-29.2" font-family="Helvetica,sans-Serif" font-size="14.00">row</text>
<polyline fill="none" stroke="#4d4d4d" stroke-width="1.4" points="53.25,-23.5 107.25,-23.5"/>
<text xml:space="preserve" text-anchor="middle" x="80.25" y="-6.2" font-family="Helvetica,sans-Serif" font-size="14.00">row</text>
</g>
<!-- live&#45;&gt;watermark -->
<g id="edge1" class="edge">
<title>live&#45;&gt;watermark</title>
<path fill="none" stroke="#cc79a7" stroke-width="1.4" d="M107.87,-24.92C143.19,-26.82 207.51,-30.26 262.54,-33.2"/>
<polygon fill="#cc79a7" stroke="#cc79a7" stroke-width="1.4" points="262.19,-36.69 272.37,-33.73 262.57,-29.7 262.19,-36.69"/>
</g>
<!-- materialize -->
<g id="node4" class="node">
<title>materialize</title>
<path fill="#fdc086" stroke="#4d4d4d" stroke-width="1.4" d="M717.25,-57.5C717.25,-57.5 600.75,-57.5 600.75,-57.5 594.75,-57.5 588.75,-51.5 588.75,-45.5 588.75,-45.5 588.75,-31.5 588.75,-31.5 588.75,-25.5 594.75,-19.5 600.75,-19.5 600.75,-19.5 717.25,-19.5 717.25,-19.5 723.25,-19.5 729.25,-25.5 729.25,-31.5 729.25,-31.5 729.25,-45.5 729.25,-45.5 729.25,-51.5 723.25,-57.5 717.25,-57.5"/>
<text xml:space="preserve" text-anchor="middle" x="659" y="-40.2" font-family="Helvetica,sans-Serif" font-size="14.00">2. materialize the tail</text>
<text xml:space="preserve" text-anchor="middle" x="659" y="-25.2" font-family="Helvetica,sans-Serif" font-size="14.00">`SegmentEncoder`</text>
</g>
<!-- watermark&#45;&gt;materialize -->
<g id="edge3" class="edge">
<title>watermark&#45;&gt;materialize</title>
<path fill="none" stroke="#cc79a7" stroke-width="1.4" d="M450.66,-38.5C490.48,-38.5 537.36,-38.5 576.46,-38.5"/>
<polygon fill="#cc79a7" stroke="#cc79a7" stroke-width="1.4" points="576.21,-42 586.21,-38.5 576.21,-35 576.21,-42"/>
<text xml:space="preserve" text-anchor="start" x="477" y="-53.15" font-family="Helvetica,sans-Serif" font-size="13.00">rows past</text>
<text xml:space="preserve" text-anchor="start" x="477" y="-39.65" font-family="Helvetica,sans-Serif" font-size="13.00">the watermark</text>
</g>
<!-- tail -->
<g id="node5" class="node">
<title>tail</title>
<polygon fill="#ededed" stroke="#4d4d4d" stroke-width="1.4" points="962.25,-67 784.25,-67 784.25,-14 962.25,-14 962.25,-67"/>
<text xml:space="preserve" text-anchor="middle" x="873.25" y="-49.7" font-family="Helvetica,sans-Serif" font-size="14.00">tail</text>
<text xml:space="preserve" text-anchor="middle" x="873.25" y="-34.7" font-family="Helvetica,sans-Serif" font-size="14.00">parquet bytes, in memory &#45;</text>
<text xml:space="preserve" text-anchor="middle" x="873.25" y="-19.7" font-family="Helvetica,sans-Serif" font-size="14.00">never written to the archive</text>
</g>
<!-- materialize&#45;&gt;tail -->
<g id="edge4" class="edge">
<title>materialize&#45;&gt;tail</title>
<path fill="none" stroke="#cc79a7" stroke-width="1.4" d="M729.79,-39.16C743.29,-39.28 757.68,-39.42 771.93,-39.55"/>
<polygon fill="#cc79a7" stroke="#cc79a7" stroke-width="1.4" points="771.69,-43.05 781.73,-39.65 771.76,-36.05 771.69,-43.05"/>
</g>
<!-- tail&#45;&gt;splice -->
<g id="edge6" class="edge">
<title>tail&#45;&gt;splice</title>
<path fill="none" stroke="#cc79a7" stroke-width="2" d="M962.89,-55.6C976.64,-57.94 990.73,-60.34 1004.16,-62.62"/>
<polygon fill="#cc79a7" stroke="#cc79a7" stroke-width="2" points="1003.36,-66.04 1013.8,-64.27 1004.53,-59.14 1003.36,-66.04"/>
</g>
<!-- bytes -->
<g id="node7" class="node">
<title>bytes</title>
<polygon fill="#dde4cf" stroke="#4d4d4d" stroke-width="1.4" points="1341.25,-94.5 1199.25,-94.5 1199.25,-56.5 1341.25,-56.5 1341.25,-94.5"/>
<text xml:space="preserve" text-anchor="middle" x="1270.25" y="-77.2" font-family="Helvetica,sans-Serif" font-size="14.00">parquet bytes</text>
<text xml:space="preserve" text-anchor="middle" x="1270.25" y="-62.2" font-family="Helvetica,sans-Serif" font-size="14.00">open with any reader</text>
</g>
<!-- splice&#45;&gt;bytes -->
<g id="edge7" class="edge">
<title>splice&#45;&gt;bytes</title>
<path fill="none" stroke="#4d4d4d" stroke-width="2" d="M1144.71,-75.5C1157.98,-75.5 1172.19,-75.5 1186.08,-75.5"/>
<polygon fill="#4d4d4d" stroke="#4d4d4d" stroke-width="2" points="1185.68,-79 1195.68,-75.5 1185.68,-72 1185.68,-79"/>
</g>
<!-- k_sealed -->
<g id="node8" class="node">
<title>k_sealed</title>
<polygon fill="#f2f2f2" stroke="#d55e00" stroke-width="3" points="107.25,-197.3 53.25,-197.3 53.25,-175.7 107.25,-175.7 107.25,-197.3"/>
<text xml:space="preserve" text-anchor="middle" x="80.25" y="-182.05" font-family="Helvetica,sans-Serif" font-size="11.00">sealed</text>
</g>
<!-- k_unsealed -->
<g id="node9" class="node">
<title>k_unsealed</title>
<polygon fill="#f2f2f2" stroke="#cc79a7" stroke-width="3" points="110,-248.3 50.5,-248.3 50.5,-226.7 110,-226.7 110,-248.3"/>
<text xml:space="preserve" text-anchor="middle" x="80.25" y="-233.05" font-family="Helvetica,sans-Serif" font-size="11.00">unsealed</text>
</g>
<!-- k_ext -->
<g id="node10" class="node">
<title>k_ext</title>
<polygon fill="#e6def2" stroke="#4d4d4d" stroke-width="1.4" stroke-dasharray="5,2" points="144.5,-299.3 16,-299.3 16,-277.7 144.5,-277.7 144.5,-299.3"/>
<text xml:space="preserve" text-anchor="middle" x="80.25" y="-284.05" font-family="Helvetica,sans-Serif" font-size="11.00">dashed: outside dendro</text>
</g>
<!-- k_hist -->
<g id="node11" class="node">
<title>k_hist</title>
<polygon fill="#ededed" stroke="#4d4d4d" stroke-width="1.4" points="22.38,-328.7 22.38,-350.3 138.12,-350.3 138.12,-328.7 22.38,-328.7"/>
<text xml:space="preserve" text-anchor="middle" x="80.25" y="-335.35" font-family="Helvetica,sans-Serif" font-size="11.00">segmented: a history</text>
</g>
<!-- k_dat -->
<g id="node12" class="node">
<title>k_dat</title>
<polygon fill="#fbe3cb" stroke="#4d4d4d" stroke-width="1.4" points="120.5,-401.3 40,-401.3 40,-379.7 120.5,-379.7 120.5,-401.3"/>
<text xml:space="preserve" text-anchor="middle" x="80.25" y="-386.05" font-family="Helvetica,sans-Serif" font-size="11.00">square: holds</text>
</g>
<!-- k_op -->
<g id="node13" class="node">
<title>k_op</title>
<path fill="#7fc97f" stroke="#4d4d4d" stroke-width="1.4" d="M114.42,-452.3C114.42,-452.3 46.08,-452.3 46.08,-452.3 42.48,-452.3 38.88,-448.7 38.88,-445.1 38.88,-445.1 38.88,-437.9 38.88,-437.9 38.88,-434.3 42.48,-430.7 46.08,-430.7 46.08,-430.7 114.42,-430.7 114.42,-430.7 118.03,-430.7 121.62,-434.3 121.62,-437.9 121.62,-437.9 121.62,-445.1 121.62,-445.1 121.62,-448.7 118.02,-452.3 114.42,-452.3"/>
<text xml:space="preserve" text-anchor="middle" x="80.25" y="-437.05" font-family="Helvetica,sans-Serif" font-size="11.00">rounded: runs</text>
</g>
</g>
</svg>
